<svg width="21" height="24" viewBox="0 0 21 24" fill="none" xmlns="http://www.w3.org/2000/svg">
<path d="M6.55859 23.8535C5.30078 23.8535 4.24512 23.6139 3.3916 23.1348C2.55306 22.6556 1.87923 22.0492 1.37012 21.3154C0.875977 20.5667 0.524089 19.7956 0.314453 19.002C0.104818 18.1934 0 17.4746 0 16.8457V16.5537C0 15.3857 0.284505 14.2852 0.853516 13.252C1.42253 12.2188 2.30599 11.3877 3.50391 10.7588C4.7168 10.1149 6.2666 9.79297 8.15332 9.79297H13.1621V8.26562C13.1621 6.88802 12.9225 5.86979 12.4434 5.21094C11.9642 4.55208 10.931 4.22266 9.34375 4.22266C8.26562 4.22266 7.44206 4.40983 6.87305 4.78418C6.31901 5.15853 5.93717 5.60775 5.72754 6.13184C5.5179 6.64095 5.41309 7.1276 5.41309 7.5918V7.74902H0.628906V7.5918C0.628906 6.42383 0.913411 5.25586 1.48242 4.08789C2.06641 2.91992 2.99479 1.94661 4.26758 1.16797C5.54036 0.389323 7.23242 0 9.34375 0C15.0039 0 17.834 2.66536 17.834 7.99609V19.3613H20.8438V23.584H13.1621V20.6641C12.2786 21.6224 11.2679 22.3936 10.1299 22.9775C9.00684 23.5615 7.81641 23.8535 6.55859 23.8535ZM8.40039 13.6562C7.03776 13.6562 6.07194 13.9482 5.50293 14.5322C4.94889 15.1012 4.67188 15.7826 4.67188 16.5762V16.8008C4.67188 17.1901 4.73926 17.6094 4.87402 18.0586C5.00879 18.4928 5.27832 18.8672 5.68262 19.1816C6.08691 19.4811 6.67839 19.6309 7.45703 19.6309C8.87956 19.6309 10.07 19.2191 11.0283 18.3955C12.0016 17.557 12.7129 16.5762 13.1621 15.4531V13.6562H8.40039Z" fill="#CB0D3C"/>
</svg>
