<svg width="83" height="62" viewBox="0 0 83 62" fill="none" xmlns="http://www.w3.org/2000/svg">
<path d="M6.84375 30C5.53125 30 4.42969 30.25 3.53906 30.75C2.66406 31.25 1.96094 31.8828 1.42969 32.6484C0.914062 33.4297 0.546875 34.2344 0.328125 35.0625C0.109375 35.9062 0 36.6562 0 37.3125V37.6172C0 38.8359 0.296875 39.9844 0.890625 41.0625C1.48438 42.1406 2.40625 43.0078 3.65625 43.6641C4.92188 44.3359 6.53906 44.6719 8.50781 44.6719H13.7344V46.2656C13.7344 47.7031 13.4844 48.7656 12.9844 49.4531C12.4844 50.1406 11.4062 50.4844 9.75 50.4844C8.625 50.4844 7.76562 50.2891 7.17188 49.8984C6.59375 49.5078 6.19531 49.0391 5.97656 48.4922C5.75781 47.9609 5.64844 47.4531 5.64844 46.9688V46.8047H0.65625V46.9688C0.65625 48.1875 0.953125 49.4062 1.54688 50.625C2.15625 51.8438 3.125 52.8594 4.45312 53.6719C5.78125 54.4844 7.54688 54.8906 9.75 54.8906C15.6562 54.8906 18.6094 52.1094 18.6094 46.5469V34.6875H21.75V30.2812H13.7344V33.3281C12.8125 32.3281 11.7578 31.5234 10.5703 30.9141C9.39844 30.3047 8.15625 30 6.84375 30ZM8.76562 40.6406C7.34375 40.6406 6.33594 40.3359 5.74219 39.7266C5.16406 39.1328 4.875 38.4219 4.875 37.5938V37.3594C4.875 36.9531 4.94531 36.5156 5.08594 36.0469C5.22656 35.5938 5.50781 35.2031 5.92969 34.875C6.35156 34.5625 6.96875 34.4062 7.78125 34.4062C9.26562 34.4062 10.5078 34.8359 11.5078 35.6953C12.5234 36.5703 13.2656 37.5938 13.7344 38.7656V40.6406H8.76562Z" fill="url(#paint0_linear_1442_14)"/>
<path d="M23.625 30.2812V34.6875H26.7656V50.2031H23.625V54.6094H31.6406V51.1406C32.4531 52.2344 33.3906 53.1328 34.4531 53.8359C35.5312 54.5391 36.6875 54.8906 37.9219 54.8906H42.7969V45.5625H37.9219V50.4375C36.2969 50.4375 34.9609 49.9766 33.9141 49.0547C32.8672 48.1484 32.1094 47.1484 31.6406 46.0547V34.6875H36.375V30.2812H23.625Z" fill="url(#paint1_linear_1442_14)"/>
<path d="M54.6562 30.2812C52.9844 30.2812 51.5859 30.7969 50.4609 31.8281C49.3516 32.875 48.7969 34.3594 48.7969 36.2812V50.4844H45.4219V54.8906H48.7969V61.125H53.6719V54.8906H59.2969V50.4844H53.6719V36.5156C53.6719 36.0156 53.8203 35.5859 54.1172 35.2266C54.4297 34.8672 54.7656 34.6875 55.125 34.6875H59.2969V30.2812H54.6562Z" fill="url(#paint2_linear_1442_14)"/>
<path d="M71.8125 30C68.6094 30 66.2891 31.0625 64.8516 33.1875C63.4297 35.3281 62.7188 38.2344 62.7188 41.9062V43.2656C62.7188 46.9375 63.4297 49.7891 64.8516 51.8203C66.2891 53.8672 68.6094 54.8906 71.8125 54.8906H72.9375C76.1406 54.8906 78.4531 53.8672 79.875 51.8203C81.3125 49.7891 82.0312 46.9375 82.0312 43.2656V41.9062C82.0312 38.2344 81.3125 35.3281 79.875 33.1875C78.4531 31.0625 76.1406 30 72.9375 30H71.8125ZM72.0469 50.4844C70.5469 50.4844 69.4297 49.9219 68.6953 48.7969C67.9609 47.6719 67.5938 45.7422 67.5938 43.0078V42.1406C67.5938 39.4062 67.9609 37.4297 68.6953 36.2109C69.4297 35.0078 70.5469 34.4062 72.0469 34.4062H72.6797C73.8359 34.4062 74.7344 34.6406 75.375 35.1094C76.0312 35.5781 76.4922 36.375 76.7578 37.5C77.0234 38.625 77.1562 40.1719 77.1562 42.1406V43.0078C77.1562 45.7422 76.7812 47.6719 76.0312 48.7969C75.2969 49.9219 74.1797 50.4844 72.6797 50.4844H72.0469Z" fill="url(#paint3_linear_1442_14)"/>
<path d="M6.84375 31.2812C5.53125 31.2812 4.42969 31.0312 3.53906 30.5312C2.66406 30.0312 1.96094 29.3984 1.42969 28.6328C0.914062 27.8516 0.546875 27.0469 0.328125 26.2188C0.109375 25.375 0 24.625 0 23.9688V23.6641C0 22.4453 0.296875 21.2969 0.890625 20.2188C1.48438 19.1406 2.40625 18.2734 3.65625 17.6172C4.92188 16.9453 6.53906 16.6094 8.50781 16.6094H13.7344V15.0156C13.7344 13.5781 13.4844 12.5156 12.9844 11.8281C12.4844 11.1406 11.4062 10.7969 9.75 10.7969C8.625 10.7969 7.76562 10.9922 7.17188 11.3828C6.59375 11.7734 6.19531 12.2422 5.97656 12.7891C5.75781 13.3203 5.64844 13.8281 5.64844 14.3125V14.4766H0.65625V14.3125C0.65625 13.0938 0.953125 11.875 1.54688 10.6562C2.15625 9.4375 3.125 8.42188 4.45312 7.60938C5.78125 6.79688 7.54688 6.39062 9.75 6.39062C15.6562 6.39062 18.6094 9.17188 18.6094 14.7344V26.5938H21.75V31H13.7344V27.9531C12.8125 28.9531 11.7578 29.7578 10.5703 30.3672C9.39844 30.9766 8.15625 31.2812 6.84375 31.2812ZM8.76562 20.6406C7.34375 20.6406 6.33594 20.9453 5.74219 21.5547C5.16406 22.1484 4.875 22.8594 4.875 23.6875V23.9219C4.875 24.3281 4.94531 24.7656 5.08594 25.2344C5.22656 25.6875 5.50781 26.0781 5.92969 26.4062C6.35156 26.7188 6.96875 26.875 7.78125 26.875C9.26562 26.875 10.5078 26.4453 11.5078 25.5859C12.5234 24.7109 13.2656 23.6875 13.7344 22.5156V20.6406H8.76562Z" fill="#BABABA"/>
<path d="M23.625 31V26.5938H26.7656V11.0781H23.625V6.67188H31.6406V10.1406C32.4531 9.04688 33.3906 8.14844 34.4531 7.44531C35.5312 6.74219 36.6875 6.39062 37.9219 6.39062H42.7969V15.7188H37.9219V10.8438C36.2969 10.8438 34.9609 11.3047 33.9141 12.2266C32.8672 13.1328 32.1094 14.1328 31.6406 15.2266V26.5938H36.375V31H23.625Z" fill="#BABABA"/>
<path d="M54.6562 31C52.9844 31 51.5859 30.4844 50.4609 29.4531C49.3516 28.4062 48.7969 26.9219 48.7969 25V10.7969H45.4219V6.39062H48.7969V0.15625H53.6719V6.39062H59.2969V10.7969H53.6719V24.7656C53.6719 25.2656 53.8203 25.6953 54.1172 26.0547C54.4297 26.4141 54.7656 26.5938 55.125 26.5938H59.2969V31H54.6562Z" fill="#BABABA"/>
<path d="M71.8125 31.2812C68.6094 31.2812 66.2891 30.2188 64.8516 28.0938C63.4297 25.9531 62.7188 23.0469 62.7188 19.375V18.0156C62.7188 14.3438 63.4297 11.4922 64.8516 9.46094C66.2891 7.41406 68.6094 6.39062 71.8125 6.39062H72.9375C76.1406 6.39062 78.4531 7.41406 79.875 9.46094C81.3125 11.4922 82.0312 14.3438 82.0312 18.0156V19.375C82.0312 23.0469 81.3125 25.9531 79.875 28.0938C78.4531 30.2188 76.1406 31.2812 72.9375 31.2812H71.8125ZM72.0469 10.7969C70.5469 10.7969 69.4297 11.3594 68.6953 12.4844C67.9609 13.6094 67.5938 15.5391 67.5938 18.2734V19.1406C67.5938 21.875 67.9609 23.8516 68.6953 25.0703C69.4297 26.2734 70.5469 26.875 72.0469 26.875H72.6797C73.8359 26.875 74.7344 26.6406 75.375 26.1719C76.0312 25.7031 76.4922 24.9062 76.7578 23.7812C77.0234 22.6562 77.1562 21.1094 77.1562 19.1406V18.2734C77.1562 15.5391 76.7812 13.6094 76.0312 12.4844C75.2969 11.3594 74.1797 10.7969 72.6797 10.7969H72.0469Z" fill="#BABABA"/>
<defs>
<linearGradient id="paint0_linear_1442_14" x1="41.0156" y1="30" x2="41.0156" y2="55" gradientUnits="userSpaceOnUse">
<stop stop-color="#BABABA" stop-opacity="0.4"/>
<stop offset="0.35" stop-color="#BABABA" stop-opacity="0.2"/>
<stop offset="0.65" stop-color="#BABABA" stop-opacity="0.0738462"/>
<stop offset="1" stop-color="#BABABA" stop-opacity="0"/>
</linearGradient>
<linearGradient id="paint1_linear_1442_14" x1="41.0156" y1="30" x2="41.0156" y2="55" gradientUnits="userSpaceOnUse">
<stop stop-color="#BABABA" stop-opacity="0.4"/>
<stop offset="0.35" stop-color="#BABABA" stop-opacity="0.2"/>
<stop offset="0.65" stop-color="#BABABA" stop-opacity="0.0738462"/>
<stop offset="1" stop-color="#BABABA" stop-opacity="0"/>
</linearGradient>
<linearGradient id="paint2_linear_1442_14" x1="41.0156" y1="30" x2="41.0156" y2="55" gradientUnits="userSpaceOnUse">
<stop stop-color="#BABABA" stop-opacity="0.4"/>
<stop offset="0.35" stop-color="#BABABA" stop-opacity="0.2"/>
<stop offset="0.65" stop-color="#BABABA" stop-opacity="0.0738462"/>
<stop offset="1" stop-color="#BABABA" stop-opacity="0"/>
</linearGradient>
<linearGradient id="paint3_linear_1442_14" x1="41.0156" y1="30" x2="41.0156" y2="55" gradientUnits="userSpaceOnUse">
<stop stop-color="#BABABA" stop-opacity="0.4"/>
<stop offset="0.35" stop-color="#BABABA" stop-opacity="0.2"/>
<stop offset="0.65" stop-color="#BABABA" stop-opacity="0.0738462"/>
<stop offset="1" stop-color="#BABABA" stop-opacity="0"/>
</linearGradient>
</defs>
</svg>
