<svg width="83" height="32" viewBox="0 0 83 32"  xmlns="http://www.w3.org/2000/svg">
<path d="M7.14062 31.2812C5.82812 31.2812 4.72656 31.0312 3.83594 30.5312C2.96094 30.0312 2.25781 29.3984 1.72656 28.6328C1.21094 27.8516 0.84375 27.0469 0.625 26.2188C0.40625 25.375 0.296875 24.625 0.296875 23.9688V23.6641C0.296875 22.4453 0.59375 21.2969 1.1875 20.2188C1.78125 19.1406 2.70312 18.2734 3.95312 17.6172C5.21875 16.9453 6.83594 16.6094 8.80469 16.6094H14.0312V15.0156C14.0312 13.5781 13.7812 12.5156 13.2812 11.8281C12.7812 11.1406 11.7031 10.7969 10.0469 10.7969C8.92188 10.7969 8.0625 10.9922 7.46875 11.3828C6.89062 11.7734 6.49219 12.2422 6.27344 12.7891C6.05469 13.3203 5.94531 13.8281 5.94531 14.3125V14.4766H0.953125V14.3125C0.953125 13.0938 1.25 11.875 1.84375 10.6562C2.45312 9.4375 3.42188 8.42188 4.75 7.60938C6.07812 6.79688 7.84375 6.39062 10.0469 6.39062C15.9531 6.39062 18.9062 9.17188 18.9062 14.7344V26.5938H22.0469V31H14.0312V27.9531C13.1094 28.9531 12.0547 29.7578 10.8672 30.3672C9.69531 30.9766 8.45312 31.2812 7.14062 31.2812ZM9.0625 20.6406C7.64062 20.6406 6.63281 20.9453 6.03906 21.5547C5.46094 22.1484 5.17188 22.8594 5.17188 23.6875V23.9219C5.17188 24.3281 5.24219 24.7656 5.38281 25.2344C5.52344 25.6875 5.80469 26.0781 6.22656 26.4062C6.64844 26.7188 7.26562 26.875 8.07812 26.875C9.5625 26.875 10.8047 26.4453 11.8047 25.5859C12.8203 24.7109 13.5625 23.6875 14.0312 22.5156V20.6406H9.0625Z" />
<path d="M23.9219 31V26.5938H27.0625V11.0781H23.9219V6.67188H31.9375V10.1406C32.75 9.04688 33.6875 8.14844 34.75 7.44531C35.8281 6.74219 36.9844 6.39062 38.2188 6.39062H43.0938V15.7188H38.2188V10.8438C36.5938 10.8438 35.2578 11.3047 34.2109 12.2266C33.1641 13.1328 32.4062 14.1328 31.9375 15.2266V26.5938H36.6719V31H23.9219Z" />
<path d="M54.9531 31C53.2812 31 51.8828 30.4844 50.7578 29.4531C49.6484 28.4062 49.0938 26.9219 49.0938 25V10.7969H45.7188V6.39062H49.0938V0.15625H53.9688V6.39062H59.5938V10.7969H53.9688V24.7656C53.9688 25.2656 54.1172 25.6953 54.4141 26.0547C54.7266 26.4141 55.0625 26.5938 55.4219 26.5938H59.5938V31H54.9531Z" />
<path d="M72.1094 31.2812C68.9062 31.2812 66.5859 30.2188 65.1484 28.0938C63.7266 25.9531 63.0156 23.0469 63.0156 19.375V18.0156C63.0156 14.3438 63.7266 11.4922 65.1484 9.46094C66.5859 7.41406 68.9062 6.39062 72.1094 6.39062H73.2344C76.4375 6.39062 78.75 7.41406 80.1719 9.46094C81.6094 11.4922 82.3281 14.3438 82.3281 18.0156V19.375C82.3281 23.0469 81.6094 25.9531 80.1719 28.0938C78.75 30.2188 76.4375 31.2812 73.2344 31.2812H72.1094ZM72.3438 10.7969C70.8438 10.7969 69.7266 11.3594 68.9922 12.4844C68.2578 13.6094 67.8906 15.5391 67.8906 18.2734V19.1406C67.8906 21.875 68.2578 23.8516 68.9922 25.0703C69.7266 26.2734 70.8438 26.875 72.3438 26.875H72.9766C74.1328 26.875 75.0312 26.6406 75.6719 26.1719C76.3281 25.7031 76.7891 24.9062 77.0547 23.7812C77.3203 22.6562 77.4531 21.1094 77.4531 19.1406V18.2734C77.4531 15.5391 77.0781 13.6094 76.3281 12.4844C75.5938 11.3594 74.4766 10.7969 72.9766 10.7969H72.3438Z" />
</svg>
